<svg width="16" height="16" viewBox="0 0 16 16" fill="none" xmlns="http://www.w3.org/2000/svg">
<rect width="16" height="16" fill="#F5F5F5"/>
<g id="ds-atoms">
<rect width="1722" height="1398" transform="translate(-601 -302)" fill="#686868"/>
<g id="icons">
<rect x="-19.5" y="-163.5" width="55" height="199" rx="4.5" stroke="#9747FF" stroke-dasharray="10 5"/>
<g id="Property 1=close">
<path id="&#244;&#128;&#129;&#142;" d="M8.16016 13.8809C4.78516 13.8809 2.04883 11.1445 2.04883 7.76953C2.04883 4.39453 4.78516 1.6582 8.16016 1.6582C11.5352 1.6582 14.2715 4.39453 14.2715 7.76953C14.2715 11.1445 11.5352 13.8809 8.16016 13.8809ZM8.16016 12.5391C10.7969 12.5391 12.9297 10.4062 12.9297 7.76953C12.9297 5.13281 10.7969 3 8.16016 3C5.52344 3 3.39062 5.13281 3.39062 7.76953C3.39062 10.4062 5.52344 12.5391 8.16016 12.5391ZM5.99219 8.37305C5.62305 8.37305 5.35938 8.14453 5.35938 7.78125C5.35938 7.41797 5.61719 7.18359 5.99219 7.18359H10.3281C10.7031 7.18359 10.9551 7.41797 10.9551 7.78125C10.9551 8.14453 10.6914 8.37305 10.3281 8.37305H5.99219Z" fill="black"/>
</g>
</g>
</g>
</svg>
