<svg width="16" height="16" viewBox="0 0 16 16" fill="none" xmlns="http://www.w3.org/2000/svg">
<rect width="16" height="16" fill="#F5F5F5"/>
<g id="ds-atoms">
<rect width="1722" height="1398" transform="translate(-601 -230)" fill="#686868"/>
<g id="icons">
<rect x="-19.5" y="-91.5" width="55" height="199" rx="4.5" stroke="#9747FF" stroke-dasharray="10 5"/>
<g id="Property 1=more">
<path id="&#244;&#128;&#141;&#160;" d="M3.29102 9.00586C2.60547 9.00586 2.04883 8.45508 2.04883 7.76953C2.04883 7.08398 2.60547 6.52734 3.29102 6.52734C3.97656 6.52734 4.52734 7.08398 4.52734 7.76953C4.52734 8.45508 3.97656 9.00586 3.29102 9.00586ZM7.68555 9.00586C7.00586 9.00586 6.44922 8.45508 6.44922 7.76953C6.44922 7.08398 7.00586 6.52734 7.68555 6.52734C8.37109 6.52734 8.92773 7.08398 8.92773 7.76953C8.92773 8.45508 8.37109 9.00586 7.68555 9.00586ZM12.0859 9.00586C11.4004 9.00586 10.8496 8.45508 10.8496 7.76953C10.8496 7.08398 11.4004 6.52734 12.0859 6.52734C12.7715 6.52734 13.3281 7.08398 13.3281 7.76953C13.3281 8.45508 12.7715 9.00586 12.0859 9.00586Z" fill="black"/>
</g>
</g>
</g>
</svg>
